<svg width="463" height="268" viewBox="0 0 463 268" fill="none" xmlns="http://www.w3.org/2000/svg">
<path d="M386 1.5H6L216.411 124.901L386 1.5Z" fill="#CB5A5A"/>
<path d="M22.5 266H457L216.411 124.901L22.5 266Z" fill="#D65A5A"/>
<path d="M386 1.5L386.883 2.71289L390.611 0L386 0V1.5ZM6 1.5V0H0.47728L5.24116 2.7939L6 1.5ZM457 266V267.5H462.523L457.759 264.706L457 266ZM22.5 266L21.6174 264.787L17.8891 267.5H22.5V266ZM386 0H6V3H386V0ZM457 264.5H22.5V267.5H457V264.5ZM457.759 264.706L217.17 123.607L215.652 126.195L456.241 267.294L457.759 264.706ZM215.529 123.688L21.6174 264.787L23.3826 267.213L217.294 126.114L215.529 123.688ZM217.294 126.114L386.883 2.71289L385.117 0.287112L215.529 123.688L217.294 126.114ZM5.24116 2.7939L215.652 126.195L217.17 123.607L6.75884 0.206104L5.24116 2.7939Z" fill="#298BEF" fill-opacity="0.2"/>
</svg>
